<svg xmlns="http://www.w3.org/2000/svg" width="81.19" height="60.548" viewBox="0 0 81.19 60.548">
  <g id="iconfinder_981_coconut_food_pongal_festival_4308381" transform="translate(-50.595 -102.818)">
    <g id="XMLID_738_" transform="translate(50.595 102.818)">
      <path id="XMLID_739_" d="M246.558,216.864c-1.377,2.012-1.846,3.726-1.254,4.585.014.021.03.041.045.061l.018.021.032.039.2.186,0,0c.036.027.074.052.112.076l.024.015.053.03.022.012.06.031.025.012.069.032a2.9,2.9,0,0,0,.493.16l.013,0a5.226,5.226,0,0,0,1.264.108h.015c.194,0,.4-.018.617-.039.328-.033.671-.083,1.024-.152l.012,0c.232-.045.477-.1.728-.161l.028-.007c.239-.059.492-.129.749-.205l.035-.01c.124-.037.253-.078.383-.12s.271-.089.4-.134l.019-.006c.136-.047.268-.095.4-.143l.051-.019c.26-.1.531-.2.8-.313l.064-.027c.132-.055.269-.113.406-.172l0,0c.134-.058.269-.119.4-.18l.068-.031c.131-.06.267-.123.4-.188l.053-.025c.131-.062.258-.124.385-.188l.054-.027c.134-.067.271-.137.408-.208l.075-.039c.141-.073.277-.145.415-.219l.025-.013c.123-.067.263-.144.4-.222l.087-.049c.139-.078.277-.156.415-.236l.05-.029c.126-.073.253-.148.381-.225l.08-.048c.14-.084.277-.168.414-.254l.077-.048c.129-.081.254-.16.38-.241l.061-.039q.207-.134.414-.271l.349-.235.167-.114q.211-.145.418-.293l.092-.066q.2-.143.4-.29l.058-.043c.121-.089.24-.178.358-.268l.081-.061c.123-.094.251-.193.378-.292l.073-.058c.12-.094.236-.187.351-.28l.024-.019.018-.015q.186-.151.368-.3l.078-.066c.121-.1.241-.2.359-.3l.012-.011c.117-.1.233-.2.348-.305l.066-.058c.117-.1.23-.207.342-.31l.042-.039q.157-.146.31-.291l.044-.042q.165-.157.323-.313l.051-.051c.1-.1.209-.208.311-.313l.007-.007c.1-.107.2-.212.3-.317l.047-.05c.2-.212.4-.428.581-.64l.018-.021.014-.016q.139-.16.273-.319l.022-.026c.083-.1.169-.2.254-.31l.012-.015c.082-.1.166-.209.248-.315l.022-.029c.159-.207.314-.419.459-.627l.016-.023c.144-.208.283-.418.408-.621.193-.311.362-.613.507-.9l.005-.011c.1-.191.181-.38.256-.562l.006-.014a5.215,5.215,0,0,0,.349-1.219,2.867,2.867,0,0,0,.028-.52s0-.018,0-.02,0-.043,0-.069c0,0,0-.023,0-.026,0-.022,0-.043-.007-.065l0-.018c0-.032-.008-.053-.011-.073l0-.024c-.008-.042-.018-.084-.029-.125l0-.018-.1-.255-.02-.035-.015-.027c-.013-.022-.027-.043-.041-.065a2.783,2.783,0,0,0-2.271-.791,17.106,17.106,0,0,0-6.8,1.927,34.24,34.24,0,0,0-4.667,2.717A28.482,28.482,0,0,0,246.558,216.864Z" transform="translate(-206.621 -185.073)"/>
      <path id="XMLID_740_" d="M201.551,143.778a1.842,1.842,0,1,0-1.842-1.842A1.844,1.844,0,0,0,201.551,143.778Z" transform="translate(-170.239 -132.727)"/>
      <path id="XMLID_741_" d="M136.313,140.094a1.842,1.842,0,1,0,1.842,1.842A1.844,1.844,0,0,0,136.313,140.094Z" transform="translate(-117.894 -132.727)"/>
      <path id="XMLID_742_" d="M173.591,190.376a1.842,1.842,0,1,0-1.842-1.842A1.844,1.844,0,0,0,173.591,190.376Z" transform="translate(-147.805 -170.116)"/>
      <path id="XMLID_743_" d="M191.29,159.73c-6.821,4.7-12.522,10.13-16.052,15.287-3.313,4.84-4.308,8.929-2.731,11.218.03.044.063.087.095.128.015.02.029.04.043.059l.05.061c.033.041.066.08.1.118h0l.054.058.039.042.067.069.077.075c.03.029.062.058.095.087l.015.013.045.04.023.02h0l.069.056.027.021h0l.036.029.056.044h0l0,0c.036.027.073.053.11.078s.085.058.129.087l.089.058.03.019.027.017,0,0c.051.031.1.06.155.089l.061.034c.057.03.112.059.168.087l.054.026.015.007.138.064.038.017,0,0,.021.009h0q.143.061.293.117c.031.012.065.022.1.034.071.025.141.051.214.074l.076.023c.082.025.164.051.249.074q.166.045.338.085l.013,0c.061.013.124.025.185.038s.12.025.181.037.139.024.21.035l.136.022c.08.012.161.022.242.032l.113.015.08.008a.943.943,0,0,1,.527.045l.057,0q.3.019.605.024c.091,0,.18,0,.273,0h.014q.2,0,.415,0h.013c.452-.012.928-.042,1.415-.09h.012c.681-.068,1.4-.173,2.137-.31l.194-.036.143-.03c.5-.1,1-.21,1.513-.337l.055-.013h0c.274-.068.552-.141.833-.218s.566-.159.852-.244l.037-.011.032-.01c.288-.086.577-.176.869-.27l.026-.008h0q.432-.14.87-.292l.026-.008.025-.009h0q.437-.151.881-.315l.083-.03.013,0h0c.222-.082.447-.169.672-.256l.221-.084.217-.087c.228-.09.456-.18.683-.274l.04-.017.1-.04q.449-.186.907-.384h0l.008,0c.3-.129.6-.263.9-.4l.144-.065q.448-.2.9-.42l.128-.061c.278-.133.56-.27.843-.41l.075-.037.038-.019q.454-.226.909-.461l.175-.091q.454-.236.91-.481l.018-.01h0c.307-.165.615-.335.924-.508l.194-.109q.458-.257.917-.523l.1-.06c.284-.165.566-.332.849-.5l.182-.109h0l0,0q.452-.273.907-.556l.176-.11h0q.416-.26.833-.528l.133-.086q.459-.3.915-.6l.21-.14.235-.159.13-.088h0l.146-.1.021-.014c.126-.085.253-.17.379-.257l.018-.012q.466-.321.922-.646l.2-.143h0q.447-.319.885-.64l.128-.095q.4-.295.79-.591l.166-.125h0q.427-.325.844-.651l.169-.132q.389-.306.771-.614l.092-.074h0q.412-.334.814-.67l.17-.142q.41-.344.805-.685l.016-.014h0l0,0c.259-.224.515-.45.768-.675l.151-.135c.252-.226.5-.453.751-.681l.1-.089.042-.039c.216-.2.431-.4.643-.6l.1-.092,0,0h0q.362-.345.712-.691h0l0,0,.057-.056.055-.054c.234-.232.465-.463.691-.695l.011-.011q.347-.355.68-.709l.1-.108c.139-.148.276-.3.413-.447.081-.089.165-.177.245-.266q.323-.356.634-.711l.056-.064.016-.018q.31-.355.607-.71l.01-.012.028-.033c.2-.234.389-.47.578-.7l.014-.017.018-.023q.274-.342.535-.681l.013-.017.023-.03.022-.028h0c.133-.174.263-.349.392-.523.045-.062.093-.123.138-.185.071-.1.137-.192.206-.288.1-.139.2-.279.3-.416l.019-.027.014-.02h0q.24-.346.467-.691l.01-.016q.231-.352.445-.7l.01-.016,0,0,.088-.146c.379-.62.722-1.233,1.02-1.824l.041-.079,0-.009h0q.165-.332.314-.658c.1-.216.191-.431.277-.641l0,0c.034-.082.065-.164.1-.245.019-.049.04-.1.058-.148.026-.068.049-.134.074-.2s.057-.157.084-.234c.038-.109.074-.218.109-.326.012-.038.022-.074.034-.111s.02-.066.03-.1c.016-.054.034-.108.049-.161.009-.033.018-.066.027-.1.025-.089.049-.178.071-.266.008-.03.014-.059.021-.089.022-.09.044-.18.063-.268.007-.031.012-.062.019-.093.018-.086.036-.171.051-.256.007-.037.012-.074.018-.111.013-.078.027-.157.038-.235s.019-.157.028-.235c0-.043.011-.086.015-.128.007-.069.011-.138.016-.206,0-.042.007-.085.009-.126,0-.068,0-.135.006-.2,0-.04,0-.081,0-.121,0-.091,0-.18,0-.268,0-.014,0-.028,0-.042h0v-.026h0c0-.07-.008-.138-.014-.207l-.006-.065c-.006-.062-.013-.123-.021-.183l-.01-.073c-.007-.049-.015-.1-.023-.147l0-.029-.012-.057,0-.011q-.039-.2-.086-.365h0l-.007-.025c-.006-.021-.013-.042-.02-.063l-.016-.05h0l-.01-.031c-.009-.028-.018-.056-.027-.084h0l0-.011-.029-.078-.031-.082-.022-.056c-.01-.024-.021-.048-.031-.073l-.01-.023c-.019-.042-.039-.084-.059-.126l0-.007c-.013-.027-.026-.053-.039-.078-.025-.047-.05-.092-.076-.136l-.012-.022-.025-.043c-.028-.047-.057-.09-.085-.134-.014-.022-.028-.045-.043-.067h0c-1.25-1.814-3.868-2.194-5.844-2.194-4.04,0-9.471,1.529-15.292,4.3q-1.812.864-3.628,1.866A78.428,78.428,0,0,0,191.29,159.73Zm15.182-1.1c2.227,0,3.289.864,3.788,1.588.036.053.07.106.1.16l.03.053c.02.035.04.071.06.108l.038.076c.014.028.03.063.046.1l.034.078c.011.026.023.058.036.09s.024.064.033.089.016.048.024.074l.008.025c.008.025.016.05.023.075,0,.009.006.021.009.032.023.083.043.171.061.259l.01.053c.008.043.014.086.021.129l.006.041c.007.053.012.1.016.144l0,.04c0,.046.007.094.009.142v.026a4.7,4.7,0,0,1-.045.849,7.065,7.065,0,0,1-.473,1.673l-.008.02c-.092.222-.192.441-.3.661l-.006.012c-.171.342-.369.7-.589,1.051q-.22.354-.466.708l-.017.024c-.161.231-.332.465-.51.7l-.023.03c-.088.114-.179.231-.273.348l-.012.016c-.089.11-.183.225-.279.341l-.018.021q-.145.172-.3.345l-.02.022-.015.017c-.2.228-.41.46-.625.688l-.048.051c-.109.115-.218.229-.33.343l-.008.008c-.108.11-.218.22-.328.33l-.053.052q-.17.168-.343.334l-.045.043c-.111.105-.22.208-.332.311l-.048.044c-.116.107-.236.216-.358.325l-.068.06c-.124.111-.246.218-.369.325l-.011.009q-.189.163-.383.326l-.083.069q-.191.159-.387.319l-.03.024c-.135.109-.258.207-.382.3l-.077.061c-.135.105-.268.209-.4.311l-.08.06q-.186.141-.376.281l-.059.044c-.141.1-.282.205-.423.306l-.095.067c-.146.1-.292.207-.44.308l-.182.124-.363.244c-.142.094-.286.189-.431.283l-.07.045c-.126.081-.259.165-.391.248l-.084.053q-.216.134-.433.265l-.086.052c-.136.081-.271.161-.405.24l-.051.029c-.144.084-.29.166-.435.248l-.092.051q-.223.125-.442.243l-.017.009q-.213.115-.426.225l-.084.043q-.218.113-.434.22l-.056.028q-.2.1-.4.2l-.062.03c-.142.068-.286.135-.43.2l-.068.031q-.218.1-.432.193h0l0,0c-.144.063-.29.124-.435.185l-.067.027c-.288.119-.579.233-.865.339l-.05.018q-.215.079-.428.153l-.035.012c-.132.046-.274.093-.414.139l-.027.009c-.128.042-.27.086-.411.128l-.019.006c-.3.089-.579.166-.849.233l-.025.007c-.282.07-.557.13-.818.181l-.012,0c-.411.079-.812.139-1.192.176q-.391.038-.744.047H189c-.074,0-.148,0-.221,0a6.853,6.853,0,0,1-1.5-.153l-.015,0a4.736,4.736,0,0,1-.816-.264l-.032-.013-.118-.055-.043-.021c-.032-.015-.073-.037-.113-.059l-.041-.022-.111-.064-.04-.025c-.086-.053-.164-.106-.238-.161l-.016-.012-.059-.047-.02-.016c-.024-.019-.047-.037-.07-.057l-.062-.054-.077-.07-.062-.061c-.023-.023-.05-.051-.076-.078l-.051-.056c-.027-.031-.054-.062-.079-.094l-.043-.053c-.038-.048-.075-.1-.111-.151-1.073-1.556-.628-3.925,1.251-6.67a30.34,30.34,0,0,1,7.713-7.363,36.089,36.089,0,0,1,4.92-2.863A18.875,18.875,0,0,1,206.471,158.629Z" transform="translate(-147.825 -140.21)"/>
      <path id="XMLID_746_" d="M239.3,180.143l-.009.061h0v.007c-.01.072-.023.145-.035.217s-.018.118-.028.178-.027.135-.04.2-.025.135-.04.2-.033.143-.05.214-.03.132-.046.2c-.021.083-.044.167-.067.25-.015.057-.029.113-.045.17-.03.108-.064.217-.1.326-.01.034-.019.067-.03.1q-.067.21-.141.424l0,.009q-.152.437-.336.886h0v0h0c-.095.231-.2.468-.305.705h0c-.092.2-.19.407-.291.612l-.051.1-.005.011,0,0c-.268.536-.568,1.087-.9,1.643q-.164.278-.337.557l-.011.017h0c-.2.32-.411.648-.631.977q-.167.25-.342.5l-.032.046,0,0h0q-.253.364-.525.735c-.036.05-.075.1-.111.149-.145.2-.291.393-.442.59l0,.005h0l-.046.06c-.046.06-.1.121-.142.181-.143.184-.286.369-.435.554l-.008.01-.01.012,0,.006,0,.005h0c-.124.155-.253.31-.381.465-.074.09-.147.181-.222.271l-.039.046q-.306.366-.629.736l-.073.083h0l-.008.009q-.313.357-.639.717c-.088.1-.18.194-.269.292-.129.141-.258.282-.389.422l-.024.026h0l0,.005-.1.106,0,0,0,0h0q-.346.366-.7.733l-.009.009h0l-.007.007c-.237.242-.469.476-.705.709l-.115.114c-.092.091-.187.182-.281.273-.149.145-.3.29-.448.435l-.006.006-.1.1q-.348.331-.705.662l-.1.09q-.381.351-.773.7l-.153.137c-.123.109-.249.218-.373.327-.139.123-.277.245-.419.368h0l-.014.012c-.271.234-.546.467-.823.7L225,199.8q-.41.342-.832.685l-.095.076h0q-.39.315-.789.629l-.173.136q-.427.335-.865.667l-.17.129h0q-.4.3-.808.6l-.131.1q-.449.33-.906.655l-.207.147q-.468.332-.943.66h0l-.016.011q-.281.193-.563.383h0l-.186.125-.155.1-.245.163h0q-.467.31-.934.612l-.137.088q-.427.275-.853.541l-.182.114,0,0h0q-.463.288-.926.567l-.188.113q-.434.261-.868.513l-.106.062h0q-.47.273-.939.535l-.2.111h0q-.475.265-.948.521l-.019.01c-.312.168-.623.332-.933.493l-.178.093h0q-.467.241-.932.473l-.117.058h0q-.436.216-.869.423l-.128.061h0q-.465.221-.927.432l-.146.066q-.466.211-.926.412l-.009,0h0l-.01,0-.006,0c-.3.13-.611.262-.921.39l-.14.058h0c-.124.051-.249.1-.373.15-.182.073-.365.148-.545.219h0c-.312.122-.622.24-.926.353l-.1.039h0q-.46.17-.913.327l-.053.018h0q-.454.157-.9.3h0l-.029.01q-.456.147-.9.281l-.073.022h0l-.006,0q-.443.132-.877.251l-.006,0h0c-.3.081-.589.158-.878.23l-.058.014h0c-.591.146-1.174.276-1.734.384l-.015,0h0l-.064.012-.26.047c-.117.021-.235.044-.352.063l-.252.04c-.123.02-.245.04-.367.058s-.225.031-.338.046c-.09.012-.18.026-.269.036q-.3.038-.6.067h-.014c-.242.024-.484.044-.719.06l-.071,0c-.255.016-.509.027-.756.034h-.036l-.054,0h-.014l-.286,0h-.123c-.117,0-.234,0-.349,0h-.012l-.077,0-.072,0c-.1,0-.2-.007-.306-.012l-.09,0-.069,0c-.1-.006-.193-.013-.288-.021l-.086-.006-.055,0h-.019l-.049,0-.037,0-.2-.022-.128-.015c-.087-.011-.173-.022-.258-.035l-.06-.007-.032-.005-.055-.008-.2-.034-.145-.025-.046-.008c-.067-.013-.132-.027-.2-.041l-.108-.022-.014,0h0l-.015,0h0l-.016,0h0l-.006,0-.008,0-.015,0h0l-.048-.011c.059.07.116.14.175.209l.165.191q.215.246.434.487l.081.09q.26.284.528.56l.15.152q.2.2.4.4l.184.179q.2.194.405.384l.162.151q.283.259.572.512l.067.058q.257.222.519.439l.191.156q.21.171.423.338l.2.157q.239.185.483.364l.136.1q.31.226.626.445l.166.112q.239.163.482.322l.22.142q.231.148.465.293l.2.127q.332.2.67.4a30.608,30.608,0,0,0,19.83,3.7,30.569,30.569,0,0,0,21.9-15.09A30.737,30.737,0,0,0,239.3,180.143Z" transform="translate(-161.894 -164.861)"/>
      <path id="XMLID_747_" d="M82.756,159.362q-.224-.156-.445-.317l-.244-.177q-.234-.173-.464-.35l-.2-.155q-.658-.513-1.288-1.059c-.064-.055-.127-.112-.19-.168q-.218-.192-.433-.388c-.073-.067-.146-.135-.219-.2q-.2-.187-.4-.377c-.072-.069-.143-.138-.214-.208-.139-.136-.276-.275-.412-.413l-.177-.18q-.58-.6-1.129-1.232l-.169-.2q-.189-.221-.374-.444l-.193-.237q-.172-.213-.341-.428l-.189-.243q-.176-.23-.348-.463c-.053-.072-.107-.143-.159-.215q-.248-.341-.49-.69l-.914-1.326h0a5.693,5.693,0,0,1-.351-.581c-1.159-2.205-.889-5.2.75-8.709a28.7,28.7,0,0,1,2.329-4.014c3.654-5.339,9.524-10.937,16.527-15.763q.624-.43,1.251-.845c.14-.092.28-.182.42-.274.279-.182.558-.365.838-.543.167-.107.335-.21.5-.315.253-.159.507-.318.761-.473.178-.109.356-.215.534-.323.245-.147.489-.293.735-.437q.274-.161.549-.318.363-.209.725-.412.277-.155.554-.308.362-.2.725-.393c.185-.1.369-.2.554-.294.243-.128.487-.253.73-.377.182-.093.364-.186.545-.277l.2-.1a28.55,28.55,0,1,0-23.488,44.783,28.787,28.787,0,0,0,4.007-.28l-.144-.1Zm-.849-51.018a3.684,3.684,0,1,1-3.684,3.684A3.688,3.688,0,0,1,81.907,108.343Zm-12.893,7.367a3.684,3.684,0,1,1,3.684-3.684A3.688,3.688,0,0,1,69.014,115.711Zm7.367,1.842a3.684,3.684,0,1,1-3.684,3.684A3.688,3.688,0,0,1,76.381,117.553Z" transform="translate(-50.595 -102.818)"/>
    </g>
  </g>
</svg>
