<svg xmlns="http://www.w3.org/2000/svg" width="145.52" height="141.932" viewBox="0 0 145.52 141.932">
  <path id="iconfinder_mark-github_298822_1_" data-name="iconfinder_mark-github_298822(1)" d="M72.76,0a72.765,72.765,0,0,0-23,141.8c3.637.666,4.965-1.581,4.965-3.5,0-1.732-.067-7.47-.1-13.545-20.233,4.4-24.509-8.58-24.509-8.58-3.313-8.4-8.078-10.64-8.078-10.64-6.612-4.512.5-4.423.5-4.423,7.305.506,11.151,7.5,11.151,7.5,6.493,11.12,17.035,7.9,21.174,6.04.661-4.69,2.544-7.9,4.619-9.717-16.152-1.838-33.142-8.082-33.142-35.963a28.17,28.17,0,0,1,7.483-19.527c-.742-1.847-3.246-9.25.719-19.265,0,0,6.1-1.954,20.011,7.461a68.878,68.878,0,0,1,36.424.009c13.882-9.424,19.993-7.461,19.993-7.461,3.979,10.023,1.474,17.417.728,19.256a28.086,28.086,0,0,1,7.478,19.527c0,27.951-17.018,34.106-33.227,35.909,2.62,2.256,4.938,6.679,4.938,13.465,0,9.726-.1,17.568-.1,19.966,0,1.936,1.323,4.2,5.009,3.49A72.773,72.773,0,0,0,72.76,0Z"/>
</svg>
