<svg xmlns="http://www.w3.org/2000/svg" viewBox="0 0 246.97 192.26"><title>Recurso 2</title><g id="Capa_2" data-name="Capa 2"><g id="Capa_1-2" data-name="Capa 1"><path d="M77.79,3.06C62.51,1.28,46.94,7.56,36.48,18.72c-10.95,11.69-16,27.59-15.93,43.42l2.23-3.89C11.79,63.63,2.72,73.74.55,86c-2.1,11.91,1.88,24.83,11.81,32.17A30.35,30.35,0,0,0,29,124.06a27.15,27.15,0,0,0,8.14-.91c1.2-.33,2.85-1.46,4-1.5,1.85-.06,3.2,1.74,4.55,2.87,10.72,8.89,22.74,17.34,36.71,20a48.53,48.53,0,0,0,19.67-.11,38.4,38.4,0,0,0,8.43-3c1.77-.87,3.61-2.3,5.73-1.38,1.38.6,2.83,2.48,4,3.43a51.83,51.83,0,0,0,70.22-5.47,54.11,54.11,0,0,0,5.38-6.83c.51-.77,1.38-3.08,2.27-3.44,1.17-.47,5,1.23,6.22,1.56,7,1.84,14.29,3.36,21.24.48,13-5.39,22.54-21.73,21.17-35.66-1.29-13-12.64-24.73-26.24-23.57-5.68.49-5.88,9,0,9a20.35,20.35,0,0,0,18.5-11.95c3.67-8,1-16.34-4.62-22.6-6.18-6.85-15.2-11.57-23.48-15.35a120,120,0,0,0-29.42-9.13c-4.89-.85-8,5.36-3.47,8.22a20.45,20.45,0,0,0,12.69,3.24c3.65-.26,6.24-4.87,3.18-7.68A80.88,80.88,0,0,0,160.79,5.63c-8.58-2.37-25.85-7-31.45,2.84a4.48,4.48,0,0,0,0,4.54,14.15,14.15,0,0,0,8.62,6.3c5.11,1.35,7.56-5.39,3.47-8.22C121.89-2.45,95.69-3.6,74.85,7.67c-5.1,2.75-.56,10.53,4.54,7.77a55.32,55.32,0,0,1,57.49,3.42l3.47-8.22a4.08,4.08,0,0,1-3.24-2.17V13c1.5-2.62,9.22-1,11.67-.68A71.41,71.41,0,0,1,163,15.73,70.58,70.58,0,0,1,187.61,30.6l3.18-7.68a12.26,12.26,0,0,1-8.15-2l-3.47,8.22a110.56,110.56,0,0,1,40.34,15.29c5,3.17,11.26,7.53,12.23,13.87,1,6.54-4.85,12.21-11.16,12.19v9c11.68-1,19,10.63,17,21.29a30.59,30.59,0,0,1-8.39,15.51c-5.25,5.4-10.55,6.91-17.94,5.39-5-1-11.63-4.43-16.76-2.45-4.35,1.68-6.44,7.92-9.31,11.23A42.89,42.89,0,0,1,125,135.7c-3.92-3.21-7.51-6.93-13-5.21-2.47.77-4.53,2.47-6.9,3.48a31,31,0,0,1-8.83,2.29c-12.32,1.36-24-3.71-34-10.45-5-3.35-9.3-7.42-14.09-11-5.33-4-8.31-1.54-14.08-.22-12.51,2.87-23.6-7.15-25-19.24-1.51-13,7.07-23.9,18.23-29.36a4.45,4.45,0,0,0,2.23-3.89C29.46,35.33,48.64,8.65,77.79,12.06c5.74.67,5.69-8.33,0-9Z"/><path d="M59.76,60.3c5.79,0,5.8-9,0-9s-5.8,9,0,9Z"/><path d="M181.26,73.8h.5a4.64,4.64,0,0,0,3.18-1.32,4.5,4.5,0,0,0,0-6.36,4.68,4.68,0,0,0-3.18-1.32h-.5a4.64,4.64,0,0,0-3.18,1.32,4.5,4.5,0,0,0,0,6.36,4.68,4.68,0,0,0,3.18,1.32Z"/><path d="M100,86.57a60.89,60.89,0,0,0,36.42,5.15c5.7-.92,3.28-9.59-2.39-8.68a50.25,50.25,0,0,1-29.49-4.25c-5.21-2.47-9.78,5.29-4.54,7.77Z"/><path d="M136.76,148.8a143.49,143.49,0,0,0-.53,20c.28,5.4.16,11.85,3.29,16.5s8.46,5.83,13.73,6.26c6,.49,12.78,1.26,18.75,0,9.86-2.08,16.28-13.6,8-21.43-3.56-3.37-8.51-4.35-10.33-9.25-1.57-4.24-2.51-7.66-1.94-12.09.73-5.73-8.27-5.68-9,0-.76,6,.85,12.2,3.48,17.63,1.51,3.11,4,5.19,6.8,7.07s9,4.6,3.9,8.18c-3.73,2.6-10.06,1.35-14.29,1.16s-10.67.6-12.43-4.29c-1.56-4.34-1.1-10.28-1.16-14.83-.06-5,.26-9.95.69-14.91.51-5.77-8.5-5.73-9,0Z"/><path d="M96.76,142.8a197.46,197.46,0,0,1,.75,30.1c-.14,2.21,0,5.38-1.35,7.28s-4.21,2.2-6.39,2.4c-5.05.45-11.32,1.3-16.36.31-2-.39-5.76-1.91-5.33-4.62.26-1.62,2.56-2.67,3.79-3.46,2.87-1.83,5.89-3.56,7.84-6.45,5-7.42,5.08-19,4-27.55-.69-5.68-9.7-5.75-9,0,.81,6.64.78,13.68-1.43,20.09-1.74,5-7.22,6.11-10.73,9.65a11.31,11.31,0,0,0-2.4,12.93c2.55,5.38,8,7.92,13.64,8.5a78.66,78.66,0,0,0,19.38-.79c5.34-.84,9.87-3.59,11.8-8.84,2.12-5.76,1.76-12.81,1.75-18.84,0-6.91-.41-13.81-1-20.69-.51-5.72-9.51-5.78-9,0Z"/></g></g></svg>