<svg xmlns="http://www.w3.org/2000/svg" width="56" height="56" viewBox="0 0 56 56">
  <g id="Grupo_2" data-name="Grupo 2" transform="translate(-1376 -513)">
    <circle id="Elipse_3" data-name="Elipse 3" cx="28" cy="28" r="28" transform="translate(1376 513)"/>
    <g id="Trazado_2" data-name="Trazado 2" transform="translate(1392 519)">
      <path d="M 3 5.25 C 1.759349942207336 5.25 0.75 4.240650177001953 0.75 3 C 0.75 1.759349942207336 1.759349942207336 0.75 3 0.75 C 4.240650177001953 0.75 5.25 1.759349942207336 5.25 3 C 5.25 4.240650177001953 4.240650177001953 5.25 3 5.25 Z" stroke="none"/>
      <path d="M 3 1.5 C 2.172899961471558 1.5 1.5 2.172899961471558 1.5 3 C 1.5 3.827100038528442 2.172899961471558 4.5 3 4.5 C 3.827100038528442 4.5 4.5 3.827100038528442 4.5 3 C 4.5 2.172899961471558 3.827100038528442 1.5 3 1.5 M 3 0 C 4.65684986114502 0 6 1.34315013885498 6 3 C 6 4.65684986114502 4.65684986114502 6 3 6 C 1.34315013885498 6 0 4.65684986114502 0 3 C 0 1.34315013885498 1.34315013885498 0 3 0 Z" stroke="none" fill="#fff"/>
    </g>
    <g id="Trazado_3" data-name="Trazado 3" transform="translate(1403 519)">
      <path d="M 3 5.25 C 1.759349942207336 5.25 0.75 4.240650177001953 0.75 3 C 0.75 1.759349942207336 1.759349942207336 0.75 3 0.75 C 4.240650177001953 0.75 5.25 1.759349942207336 5.25 3 C 5.25 4.240650177001953 4.240650177001953 5.25 3 5.25 Z" stroke="none"/>
      <path d="M 3 1.5 C 2.172899961471558 1.5 1.5 2.172899961471558 1.5 3 C 1.5 3.827100038528442 2.172899961471558 4.5 3 4.5 C 3.827100038528442 4.5 4.5 3.827100038528442 4.5 3 C 4.5 2.172899961471558 3.827100038528442 1.5 3 1.5 M 3 0 C 4.65684986114502 0 6 1.34315013885498 6 3 C 6 4.65684986114502 4.65684986114502 6 3 6 C 1.34315013885498 6 0 4.65684986114502 0 3 C 0 1.34315013885498 1.34315013885498 0 3 0 Z" stroke="none" fill="#fff"/>
    </g>
    <g id="Trazado_4" data-name="Trazado 4" transform="translate(1398 529)">
      <path d="M 3 5.25 C 1.759349942207336 5.25 0.75 4.240650177001953 0.75 3 C 0.75 1.759349942207336 1.759349942207336 0.75 3 0.75 C 4.240650177001953 0.75 5.25 1.759349942207336 5.25 3 C 5.25 4.240650177001953 4.240650177001953 5.25 3 5.25 Z" stroke="none"/>
      <path d="M 3 1.5 C 2.172899961471558 1.5 1.5 2.172899961471558 1.5 3 C 1.5 3.827100038528442 2.172899961471558 4.5 3 4.5 C 3.827100038528442 4.5 4.5 3.827100038528442 4.5 3 C 4.5 2.172899961471558 3.827100038528442 1.5 3 1.5 M 3 0 C 4.65684986114502 0 6 1.34315013885498 6 3 C 6 4.65684986114502 4.65684986114502 6 3 6 C 1.34315013885498 6 0 4.65684986114502 0 3 C 0 1.34315013885498 1.34315013885498 0 3 0 Z" stroke="none" fill="#fff"/>
    </g>
  </g>
</svg>
